<svg width="24" height="24" viewBox="0 0 24 24" fill="none" xmlns="http://www.w3.org/2000/svg">
<mask id="mask0_127_172" style="mask-type:alpha" maskUnits="userSpaceOnUse" x="0" y="0" width="24" height="24">
<rect width="24" height="24" fill="#D9D9D9"/>
</mask>
<g mask="url(#mask0_127_172)">
<mask id="mask1_127_172" style="mask-type:alpha" maskUnits="userSpaceOnUse" x="0" y="-1" width="25" height="25">
<rect x="0.165039" y="-0.719635" width="24" height="24" fill="#D9D9D9"/>
</mask>
<g mask="url(#mask1_127_172)">
<path d="M5 21C4.45 21 3.97917 20.8042 3.5875 20.4125C3.19583 20.0208 3 19.55 3 19V12.75H10V21H5ZM12 21V12.75H21V19C21 19.55 20.8042 20.0208 20.4125 20.4125C20.0208 20.8042 19.55 21 19 21H12ZM3 10.75V5C3 4.45 3.19583 3.97917 3.5875 3.5875C3.97917 3.19583 4.45 3 5 3H19C19.55 3 20.0208 3.19583 20.4125 3.5875C20.8042 3.97917 21 4.45 21 5V10.75H3Z" fill="#1C1B1F"/>
</g>
</g>
<path d="M12 13H21V19C21 20.1046 20.1046 21 19 21H12V13Z" fill="#30B17F"/>
</svg>
