<svg width="24" height="24" viewBox="0 0 24 24" fill="none" xmlns="http://www.w3.org/2000/svg">
<mask id="mask0_58_80" style="mask-type:alpha" maskUnits="userSpaceOnUse" x="0" y="0" width="24" height="24">
<rect width="24" height="24" fill="#D9D9D9"/>
</mask>
<g mask="url(#mask0_58_80)">
<mask id="mask1_58_80" style="mask-type:alpha" maskUnits="userSpaceOnUse" x="0" y="-1" width="25" height="25">
<rect x="0.165039" y="-0.719635" width="24" height="24" fill="#D9D9D9"/>
</mask>
<g mask="url(#mask1_58_80)">
<path d="M5.16504 20.2804C4.61504 20.2804 4.14421 20.0845 3.75254 19.6929C3.36087 19.3012 3.16504 18.8304 3.16504 18.2804V12.0304H10.165V20.2804H5.16504ZM12.165 20.2804V12.0304H21.165V18.2804C21.165 18.8304 20.9692 19.3012 20.5775 19.6929C20.1859 20.0845 19.715 20.2804 19.165 20.2804H12.165ZM3.16504 10.0304V4.28036C3.16504 3.73037 3.36087 3.25953 3.75254 2.86787C4.14421 2.4762 4.61504 2.28036 5.16504 2.28036H19.165C19.715 2.28036 20.1859 2.4762 20.5775 2.86787C20.9692 3.25953 21.165 3.73037 21.165 4.28036V10.0304H3.16504Z" fill="#D1DFF8"/>
</g>
</g>
</svg>
