<svg width="24" height="24" viewBox="0 0 24 24" fill="none" xmlns="http://www.w3.org/2000/svg">
<mask id="mask0_61_89" style="mask-type:alpha" maskUnits="userSpaceOnUse" x="0" y="0" width="24" height="24">
<rect width="24" height="24" fill="#D9D9D9"/>
</mask>
<g mask="url(#mask0_61_89)">
<path d="M7.4 22L6 20.6L12.9 13.675L16.4 17.175L21.575 12L23 13.425L16.4 20L12.9 16.5L7.4 22ZM4 21C3.45 21 2.97917 20.8042 2.5875 20.4125C2.19583 20.0208 2 19.55 2 19V5C2 4.45 2.19583 3.97917 2.5875 3.5875C2.97917 3.19583 3.45 3 4 3H18C18.55 3 19.0208 3.19583 19.4125 3.5875C19.8042 3.97917 20 4.45 20 5V9.2H4V21Z" fill="#1C1B1F"/>
<mask id="mask1_61_89" style="mask-type:alpha" maskUnits="userSpaceOnUse" x="2" y="3" width="21" height="19">
<path d="M7.4 22L6 20.6L12.9 13.675L16.4 17.175L21.575 12L23 13.425L16.4 20L12.9 16.5L7.4 22ZM4 21C3.45 21 2.97917 20.8042 2.5875 20.4125C2.19583 20.0208 2 19.55 2 19V5C2 4.45 2.19583 3.97917 2.5875 3.5875C2.97917 3.19583 3.45 3 4 3H18C18.55 3 19.0208 3.19583 19.4125 3.5875C19.8042 3.97917 20 4.45 20 5V9.2H4V21Z" fill="#30B17F"/>
</mask>
<g mask="url(#mask1_61_89)">
<ellipse cx="17" cy="18.5" rx="13" ry="8.5" fill="#30B17F"/>
</g>
</g>
</svg>
